<svg version="1.1" id="Layer_1" xmlns="http://www.w3.org/2000/svg" xmlns:xlink="http://www.w3.org/1999/xlink" x="0px" y="0px"
	 width="100%" viewBox="0 0 514 300" enable-background="new 0 0 514 300" xml:space="preserve">
<path fill="#FFFEFE" opacity="1.000000" stroke="none" 
	d="
M1.000000,145.000000 
	C1.000000,142.299988 1.000000,139.599976 1.291096,136.463623 
	C1.771054,135.981735 1.959916,135.936188 2.607564,135.922241 
	C43.483276,135.942139 83.900391,135.997192 124.317024,135.881302 
	C137.808716,135.842621 150.192169,131.804993 161.125931,123.886078 
	C165.215851,120.923889 168.778091,117.233131 173.125854,113.393303 
	C173.125854,146.932205 173.125854,179.896545 173.125854,213.006561 
	C222.864059,213.006561 272.137115,213.006561 322.603882,213.006561 
	C321.030182,211.932770 320.431519,211.490784 319.801514,211.099274 
	C298.215820,197.685547 276.617218,184.292633 255.044617,170.857956 
	C247.877533,166.394516 247.500290,165.341293 249.238449,155.886322 
	C251.039124,156.951660 252.729492,157.905609 254.374710,158.931976 
	C282.819580,176.677200 311.297455,194.370285 339.641968,212.274460 
	C342.600433,214.143219 344.585846,213.851242 347.248138,212.153595 
	C363.622986,201.712082 380.065033,191.375885 396.494873,181.020721 
	C405.118469,175.585556 413.762665,170.183029 423.045868,164.359039 
	C423.045868,168.062836 423.262268,170.883102 422.945862,173.642303 
	C422.807495,174.849136 421.844147,176.346268 420.806702,177.007217 
	C405.826141,186.551117 390.761230,195.962601 375.739471,205.442108 
	C373.630798,206.772797 371.643768,208.296295 369.600464,209.730545 
	C370.657745,210.925217 371.244019,211.083984 371.829926,211.082764 
	C391.636108,211.041473 411.444977,211.174042 431.247833,210.889984 
	C468.640930,210.353668 503.068451,182.856247 505.549316,143.067993 
	C506.621460,125.873474 503.941223,109.528770 493.750397,95.262901 
	C477.390045,72.360497 454.284515,62.399193 426.740143,62.103115 
	C400.324127,61.819168 373.902496,62.054234 347.483337,62.076145 
	C346.206390,62.077206 344.929565,62.222271 343.635925,62.301300 
	C343.635925,77.382973 343.635925,92.112465 343.635925,107.300720 
	C370.043396,107.300720 396.021454,107.300720 423.422180,107.300720 
	C396.237640,124.329613 370.289581,140.583923 343.560455,157.327545 
	C343.560455,148.390015 344.014862,140.400909 343.426453,132.489365 
	C342.890289,125.280273 342.282257,117.770340 339.847046,111.068451 
	C333.569855,93.792923 319.596924,83.499939 304.045380,75.279266 
	C286.922394,66.227898 268.222687,63.585831 249.075226,62.567421 
	C248.877838,62.155106 248.758484,62.011627 248.603806,61.529808 
	C248.590134,60.512188 248.611771,59.832916 248.768875,58.827057 
	C248.814117,58.282711 248.723877,58.064953 248.600540,57.511314 
	C248.589417,56.501499 248.611420,55.827572 248.768875,54.827057 
	C248.814117,54.282711 248.723877,54.064953 248.600540,53.511314 
	C248.589417,52.501499 248.611420,51.827572 248.768875,50.827057 
	C248.814117,50.282711 248.723877,50.064953 248.600555,49.509361 
	C248.591522,48.493877 248.615570,47.816219 248.804688,46.746338 
	C248.860275,45.525009 248.750809,44.695911 248.605148,43.528702 
	C248.590439,42.511608 248.611923,41.832626 248.768875,40.827057 
	C248.814117,40.282711 248.723877,40.064953 248.600540,39.511314 
	C248.589417,38.501499 248.611420,37.827572 248.768875,36.827057 
	C248.814117,36.282711 248.723877,36.064953 248.600540,35.511314 
	C248.589432,34.501499 248.611420,33.827572 248.768875,32.827057 
	C248.814117,32.282711 248.723877,32.064953 248.600540,31.511314 
	C248.589432,30.501505 248.611420,29.827574 248.768875,28.827061 
	C248.814117,28.282717 248.723877,28.064959 248.600540,27.511318 
	C248.589417,26.501505 248.611404,25.827576 248.768875,24.827061 
	C248.814117,24.282717 248.723877,24.064959 248.600540,23.511318 
	C248.589417,22.501505 248.611420,21.827576 248.768875,20.827061 
	C248.814117,20.282717 248.723877,20.064959 248.600540,19.511318 
	C248.589432,18.501505 248.611420,17.827576 248.768875,16.827059 
	C248.814117,16.282715 248.723877,16.064957 248.600540,15.511315 
	C248.589432,14.501504 248.611420,13.827574 248.768875,12.827057 
	C248.814117,12.282712 248.723877,12.064954 248.600540,11.511314 
	C248.589417,10.501503 248.611404,9.827573 248.768875,8.827058 
	C248.814117,8.282715 248.723877,8.064957 248.600540,7.511317 
	C248.589417,6.501505 248.611420,5.827574 248.768875,4.827058 
	C248.814117,4.282715 248.723877,4.064957 248.594696,3.590520 
	C248.489700,2.996199 248.423676,2.658557 248.531097,1.996716 
	C248.803040,1.448345 248.901520,1.224172 249.000000,1.000000 
	C337.597839,1.000000 426.195679,1.000000 515.000000,1.000000 
	C515.000000,100.020798 515.000000,199.041748 514.680359,298.409241 
	C508.265869,289.780792 502.171021,280.805786 496.304047,272.166351 
	C497.971466,271.381866 500.858765,270.460327 503.246094,268.813843 
	C509.085632,264.786438 510.700043,258.673706 509.736542,252.096405 
	C508.792572,245.652374 505.587860,239.735641 498.626373,239.011932 
	C485.696655,237.667801 472.649597,237.452316 459.580139,236.763168 
	C459.580139,258.678375 459.580139,279.242615 459.580139,299.711060 
	C463.875366,299.711060 467.789337,299.711060 471.941132,299.711060 
	C471.941132,295.238342 471.941132,291.106049 471.941132,286.973785 
	C471.941132,282.707031 471.941132,278.440277 471.941132,274.222626 
	C480.991608,273.633209 482.987396,274.549866 487.583435,281.190033 
	C488.999817,283.236328 490.711884,285.175476 491.666229,287.427429 
	C496.117920,297.932007 503.700897,302.342651 515.000000,300.000000 
	C513.503906,300.333344 512.007996,300.957184 510.511688,300.958252 
	C443.986908,301.006531 377.462128,301.000000 310.611176,300.654510 
	C319.192383,298.558960 325.166901,293.088013 325.572052,283.835602 
	C326.239777,268.586060 325.753204,253.286011 325.753204,237.692795 
	C321.877869,237.692795 318.011932,237.692795 313.850616,237.692795 
	C313.850616,239.891800 313.877838,241.709534 313.846252,243.526260 
	C313.624115,256.313568 313.426422,269.101471 313.138550,281.887360 
	C313.044373,286.071594 310.638611,288.657410 306.762909,289.827271 
	C297.186798,292.717682 290.107910,287.698486 289.684143,277.772278 
	C289.585419,275.459381 289.563141,273.141876 289.560577,270.826447 
	C289.548340,259.829468 289.555115,248.832504 289.555115,237.733368 
	C284.961517,237.733368 281.093384,237.733368 277.077515,237.733368 
	C277.077515,250.963470 276.945007,263.769379 277.112244,276.571381 
	C277.304993,291.325745 280.756561,296.140717 294.000000,301.000000 
	C231.312439,301.000000 168.624878,301.000000 105.677277,300.690125 
	C108.497414,299.217560 111.879868,298.532593 114.604836,296.808441 
	C125.730835,289.768829 128.375015,278.830505 127.986992,266.538361 
	C127.286362,244.343475 110.626595,232.611374 88.962517,237.635284 
	C74.656288,240.952896 66.207245,256.246918 68.291313,273.120300 
	C69.296822,281.261261 71.511826,288.947540 78.132446,294.248047 
	C81.641190,297.057159 86.016106,298.784363 90.000000,301.000000 
	C72.979103,301.000000 55.958210,301.000000 38.591148,300.647766 
	C48.213741,297.937775 55.701035,289.685974 55.883415,280.551178 
	C52.379223,279.477753 48.793461,278.379333 44.989983,277.214233 
	C44.156452,279.283813 43.538673,281.151611 42.674751,282.897675 
	C40.433117,287.428192 36.805054,290.121704 31.678202,290.239624 
	C26.353609,290.362152 21.563440,288.636108 19.147507,283.651642 
	C14.558725,274.184235 14.579127,264.420135 18.721035,254.743347 
	C19.284348,253.427292 20.282675,252.187622 21.354969,251.216736 
	C29.335855,243.990356 38.878479,246.510864 44.807838,257.585693 
	C48.621975,256.615173 52.497738,255.628998 56.400688,254.635895 
	C50.685333,236.430664 27.403725,230.236359 13.611629,242.681213 
	C3.193109,252.082031 -0.074509,269.993408 5.643687,284.162628 
	C9.140466,292.827362 15.943879,297.503357 24.000000,301.000000 
	C16.363403,301.000000 8.726806,301.000000 1.000000,301.000000 
	C1.000000,271.645844 1.000000,242.291580 1.345865,212.633133 
	C3.223527,212.682953 4.754695,213.342636 6.287213,213.345779 
	C36.361641,213.407700 66.436218,213.397705 96.510765,213.382263 
	C98.115349,213.381439 99.719833,213.203690 101.306618,213.109344 
	C101.306618,209.536819 101.306618,206.470795 101.306618,203.000000 
	C67.626480,203.000000 34.313240,203.000000 1.000000,203.000000 
	C1.000000,200.299988 1.000000,197.599976 1.468600,194.477631 
	C34.913197,194.055313 67.889198,194.055313 101.170685,194.055313 
	C101.170685,190.575775 101.170685,187.393906 101.170685,184.000000 
	C67.456543,184.000000 34.228271,184.000000 1.000000,184.000000 
	C1.000000,180.969406 1.000000,177.938812 1.368451,174.500366 
	C34.805958,174.092514 67.875008,174.092514 101.308876,174.092514 
	C101.308876,171.045715 101.308876,168.175186 101.308876,165.000000 
	C67.698387,165.000000 34.349194,165.000000 1.000000,165.000000 
	C1.000000,162.299988 1.000000,159.599976 1.225986,156.368652 
	C1.761235,155.682770 1.950128,155.436035 2.380580,155.124390 
	C3.468461,155.175690 4.194410,155.199738 5.033664,155.374176 
	C5.458771,155.424927 5.770574,155.325302 6.436678,155.199829 
	C7.500773,155.190552 8.210566,155.207169 9.033661,155.374161 
	C9.458765,155.424927 9.770567,155.325302 10.436672,155.199799 
	C11.500771,155.190552 12.210565,155.207169 13.033661,155.374161 
	C13.458765,155.424927 13.770567,155.325302 14.436672,155.199829 
	C15.500770,155.190567 16.210564,155.207169 17.033669,155.374161 
	C17.458775,155.424911 17.770573,155.325302 18.436672,155.199829 
	C19.500771,155.190567 20.210564,155.207184 21.033669,155.374161 
	C21.458778,155.424927 21.770575,155.325317 22.436674,155.199829 
	C23.500771,155.190552 24.210564,155.207169 25.033669,155.374161 
	C25.458776,155.424927 25.770575,155.325302 26.436672,155.199829 
	C27.500771,155.190567 28.210564,155.207184 29.033670,155.374176 
	C29.458778,155.424927 29.770576,155.325317 30.436676,155.199829 
	C31.500776,155.190552 32.210571,155.207169 33.033676,155.374146 
	C33.458786,155.424927 33.770584,155.325302 34.436684,155.199829 
	C35.500778,155.190567 36.210575,155.207169 37.033676,155.374161 
	C37.458786,155.424911 37.770584,155.325302 38.436684,155.199814 
	C39.500778,155.190552 40.210575,155.207169 41.033676,155.374146 
	C41.458782,155.424911 41.770580,155.325302 42.436684,155.199829 
	C43.500778,155.190567 44.210575,155.207169 45.033676,155.374161 
	C45.458786,155.424927 45.770584,155.325317 46.436684,155.199829 
	C47.500778,155.190567 48.210575,155.207184 49.033676,155.374161 
	C49.458786,155.424927 49.770584,155.325302 50.436684,155.199829 
	C51.500778,155.190552 52.210575,155.207169 53.033676,155.374161 
	C53.458786,155.424927 53.770584,155.325302 54.436684,155.199829 
	C55.500778,155.190567 56.210575,155.207184 57.033676,155.374161 
	C57.458786,155.424911 57.770584,155.325302 58.436684,155.199829 
	C59.500778,155.190552 60.210575,155.207169 61.033676,155.374146 
	C61.458782,155.424911 61.770580,155.325302 62.436680,155.199799 
	C63.500771,155.190552 64.210564,155.207169 65.033661,155.374146 
	C65.458771,155.424927 65.770561,155.325302 66.436661,155.199814 
	C67.500763,155.190552 68.210556,155.207169 69.033661,155.374146 
	C69.458771,155.424927 69.770561,155.325302 70.436661,155.199829 
	C71.500763,155.190552 72.210556,155.207169 73.033661,155.374146 
	C73.458763,155.424911 73.770561,155.325302 74.436661,155.199799 
	C75.500763,155.190552 76.210556,155.207153 77.033661,155.374146 
	C77.458763,155.424911 77.770561,155.325302 78.436661,155.199829 
	C79.500763,155.190552 80.210556,155.207169 81.033661,155.374161 
	C81.458763,155.424911 81.770561,155.325302 82.436661,155.199814 
	C83.500763,155.190552 84.210556,155.207153 85.033661,155.374146 
	C85.458771,155.424927 85.770561,155.325302 86.436661,155.199814 
	C87.500763,155.190552 88.210556,155.207169 89.033661,155.374146 
	C89.458763,155.424911 89.770561,155.325287 90.436661,155.199814 
	C91.500763,155.190567 92.210556,155.207169 93.033661,155.374146 
	C93.458763,155.424911 93.770561,155.325302 94.436661,155.199799 
	C95.500763,155.190552 96.210556,155.207169 97.033661,155.374146 
	C97.458763,155.424911 97.770561,155.325302 98.481476,155.197876 
	C99.742577,154.463638 100.604553,153.757202 101.645218,152.798401 
	C101.771851,151.351929 101.719803,150.157822 101.588425,148.649872 
	C101.494957,147.904602 101.480835,147.473175 101.619156,146.838409 
	C101.167519,146.267868 100.563446,145.900681 99.648041,145.532379 
	C98.924049,145.494293 98.511391,145.457352 97.975052,145.288879 
	C97.533699,145.245117 97.216019,145.332870 96.546799,145.468185 
	C95.488235,145.484375 94.781197,145.453003 93.886780,145.270630 
	C93.111549,145.256027 92.523697,145.392395 91.628433,145.529510 
	C90.913589,145.493637 90.506157,145.457016 89.975052,145.288879 
	C89.533699,145.245117 89.216019,145.332870 88.546799,145.468201 
	C87.488235,145.484375 86.781197,145.452988 85.886780,145.270630 
	C85.111549,145.256012 84.523697,145.392395 83.628433,145.529510 
	C82.913589,145.493637 82.506157,145.457016 81.975052,145.288879 
	C81.533699,145.245102 81.216011,145.332870 80.546799,145.468201 
	C79.488235,145.484390 78.781197,145.453003 77.886780,145.270630 
	C77.111549,145.256027 76.523697,145.392395 75.628433,145.529510 
	C74.913589,145.493637 74.506157,145.457031 73.975052,145.288879 
	C73.533699,145.245117 73.216019,145.332870 72.546799,145.468201 
	C71.488235,145.484375 70.781197,145.453003 69.886780,145.270630 
	C69.111549,145.256012 68.523697,145.392395 67.628433,145.529510 
	C66.913589,145.493637 66.506157,145.457016 65.975052,145.288879 
	C65.533699,145.245117 65.216019,145.332870 64.546799,145.468201 
	C63.488232,145.484375 62.781200,145.453003 61.886780,145.270630 
	C61.111542,145.256027 60.523685,145.392395 59.628422,145.529510 
	C58.913582,145.493637 58.506153,145.457016 57.975044,145.288879 
	C57.533680,145.245117 57.216000,145.332870 56.546791,145.468201 
	C55.488228,145.484375 54.781197,145.453003 53.886780,145.270630 
	C53.111542,145.256012 52.523685,145.392395 51.628422,145.529510 
	C50.913582,145.493637 50.506153,145.457031 49.975044,145.288879 
	C49.533684,145.245117 49.216000,145.332870 48.546791,145.468185 
	C47.488228,145.484375 46.781197,145.453003 45.886784,145.270630 
	C45.111546,145.256027 44.523689,145.392410 43.628426,145.529510 
	C42.913582,145.493637 42.506153,145.457031 41.975044,145.288879 
	C41.533684,145.245117 41.216003,145.332870 40.546791,145.468201 
	C39.488228,145.484375 38.781197,145.453003 37.886784,145.270645 
	C37.111546,145.256027 36.523689,145.392395 35.628426,145.529510 
	C34.913586,145.493637 34.506153,145.457016 33.975044,145.288879 
	C33.533680,145.245117 33.216000,145.332870 32.546791,145.468185 
	C31.488228,145.484375 30.781195,145.453003 29.886787,145.270630 
	C29.111553,145.255997 28.523693,145.392380 27.628428,145.529510 
	C26.913589,145.493637 26.506157,145.457016 25.975054,145.288879 
	C25.533695,145.245102 25.216011,145.332870 24.546795,145.468201 
	C23.488230,145.484375 22.781197,145.453003 21.886787,145.270630 
	C21.111555,145.255997 20.523695,145.392380 19.628428,145.529510 
	C18.913589,145.493637 18.506157,145.457016 17.975052,145.288864 
	C17.533693,145.245102 17.216009,145.332855 16.546795,145.468185 
	C15.488231,145.484375 14.781196,145.453003 13.886784,145.270630 
	C13.111549,145.256027 12.523691,145.392395 11.628426,145.529510 
	C10.913587,145.493637 10.506154,145.457016 9.975052,145.288879 
	C9.533696,145.245102 9.216011,145.332870 8.546797,145.468185 
	C7.488231,145.484375 6.781197,145.453003 5.886779,145.270630 
	C5.111542,145.256012 4.523687,145.392380 3.604802,145.539886 
	C2.847129,145.648376 2.420487,145.745728 1.919528,145.619690 
	C1.600642,145.184952 1.318905,145.052856 1.000000,145.000000 
M200.593842,241.864334 
	C200.472290,240.428299 200.350754,238.992249 200.237015,237.648468 
	C193.953278,237.648468 187.195679,235.851868 182.686646,238.262009 
	C179.530472,239.949051 179.344971,247.355453 178.012054,252.256256 
	C175.683380,260.818359 173.492706,269.417969 171.244217,278.001862 
	C170.937576,277.980133 170.630936,277.958405 170.324295,277.936676 
	C166.770645,264.439514 163.217010,250.942322 159.718872,237.655975 
	C153.148697,237.655975 147.219330,237.655975 141.271317,237.655975 
	C141.271317,258.570404 141.271317,279.122528 141.271317,299.706268 
	C145.118271,299.706268 148.672638,299.706268 152.697174,299.706268 
	C152.697174,284.797180 152.697174,270.234833 152.697174,255.672485 
	C154.050507,257.246674 154.609512,258.916901 155.032166,260.620911 
	C158.030991,272.711365 160.944504,284.823608 164.070190,296.880951 
	C164.383636,298.090027 165.835785,299.740021 166.921707,299.874420 
	C170.146393,300.273438 173.452148,300.017334 176.717636,300.017334 
	C180.629669,284.413788 184.394241,269.398376 188.158813,254.382950 
	C188.513306,254.438736 188.867798,254.494537 189.222290,254.550323 
	C189.222290,269.632324 189.222290,284.714294 189.222290,299.857910 
	C193.106949,299.857910 196.565063,299.857910 200.593628,299.857910 
	C200.593628,280.705170 200.593628,261.748260 200.593842,241.864334 
M398.685547,296.023956 
	C398.301392,298.834808 398.986633,300.378113 402.365387,300.100830 
	C406.172668,299.788361 410.024658,300.016541 413.857178,300.015808 
	C424.292145,300.013824 434.727081,300.015137 445.090973,300.015137 
	C446.231934,289.322174 446.231934,289.321930 436.427582,289.321533 
	C428.074005,289.321167 419.720398,289.321442 411.448730,289.321442 
	C411.448730,283.327728 411.448730,278.119812 411.448730,272.349243 
	C421.793945,272.349243 431.759979,272.349243 441.659302,272.349243 
	C441.659302,268.534607 441.659302,265.300140 441.659302,261.750031 
	C431.354889,261.750031 421.436066,261.750031 411.376953,261.750031 
	C411.376953,257.038300 411.376953,252.657639 411.376953,247.850983 
	C422.449341,247.850983 433.204224,247.850983 443.927094,247.850983 
	C443.927094,244.133545 443.927094,240.853363 443.927094,237.682648 
	C428.707581,237.682648 413.835449,237.682648 398.649872,237.682648 
	C398.649872,257.064331 398.649872,276.077759 398.685547,296.023956 
M216.303635,243.722260 
	C216.303635,262.327728 216.303635,280.933167 216.303635,299.760559 
	C220.683884,299.760559 224.573990,299.760559 228.945099,299.760559 
	C228.945099,291.943787 228.945099,284.400940 228.945099,276.040009 
	C234.836166,276.040009 240.262466,276.118652 245.685577,276.020691 
	C252.951920,275.889435 258.666962,272.699158 261.655518,266.083740 
	C264.806641,259.108551 265.051697,251.659271 260.331390,245.305420 
	C258.130249,242.342560 254.269516,239.000778 250.955429,238.768906 
	C239.511749,237.968185 227.977600,238.460571 216.227966,238.460571 
	C216.227966,239.801102 216.227966,241.290726 216.303635,243.722260 
M356.522919,286.465942 
	C356.522919,290.877625 356.522919,295.289276 356.522919,299.661560 
	C361.165436,299.661560 365.058655,299.661560 369.341064,299.661560 
	C369.341064,282.258240 369.341064,265.244843 369.341064,247.862244 
	C375.484985,247.862244 381.234406,247.862244 387.063263,247.862244 
	C387.063263,244.245804 387.063263,241.013580 387.063263,237.698135 
	C370.627075,237.698135 354.604919,237.698135 338.501282,237.698135 
	C338.501282,241.310715 338.501282,244.528793 338.501282,248.161285 
	C344.617218,248.161285 350.384583,248.161285 356.679840,248.161285 
	C356.679840,260.878632 356.679840,273.177917 356.522919,286.465942 
z"/>
<path fill="#393B93" opacity="1.000000" stroke="none" 
	d="
M248.639618,47.138565 
	C248.615570,47.816219 248.591522,48.493877 248.456497,49.643272 
	C248.441483,50.461224 248.537445,50.807434 248.633408,51.153641 
	C248.611420,51.827572 248.589417,52.501499 248.456482,53.645222 
	C248.441483,54.461224 248.537445,54.807430 248.633408,55.153641 
	C248.611420,55.827572 248.589417,56.501499 248.456482,57.645222 
	C248.441483,58.461224 248.537445,58.807430 248.633408,59.153641 
	C248.611771,59.832916 248.590134,60.512188 248.480087,61.683670 
	C248.645554,62.396000 248.899414,62.616127 249.153275,62.836258 
	C268.222687,63.585831 286.922394,66.227898 304.045380,75.279266 
	C319.596924,83.499939 333.569855,93.792923 339.847046,111.068451 
	C342.282257,117.770340 342.890289,125.280273 343.426453,132.489365 
	C344.014862,140.400909 343.560455,148.390015 343.560455,157.327545 
	C370.289581,140.583923 396.237640,124.329613 423.422180,107.300720 
	C396.021454,107.300720 370.043396,107.300720 343.635925,107.300720 
	C343.635925,92.112465 343.635925,77.382973 343.635925,62.301300 
	C344.929565,62.222271 346.206390,62.077206 347.483337,62.076145 
	C373.902496,62.054234 400.324127,61.819168 426.740143,62.103115 
	C454.284515,62.399193 477.390045,72.360497 493.750397,95.262901 
	C503.941223,109.528770 506.621460,125.873474 505.549316,143.067993 
	C503.068451,182.856247 468.640930,210.353668 431.247833,210.889984 
	C411.444977,211.174042 391.636108,211.041473 371.829926,211.082764 
	C371.244019,211.083984 370.657745,210.925217 369.600464,209.730545 
	C371.643768,208.296295 373.630798,206.772797 375.739471,205.442108 
	C390.761230,195.962601 405.826141,186.551117 420.806702,177.007217 
	C421.844147,176.346268 422.807495,174.849136 422.945862,173.642303 
	C423.262268,170.883102 423.045868,168.062836 423.045868,164.359039 
	C413.762665,170.183029 405.118469,175.585556 396.494873,181.020721 
	C380.065033,191.375885 363.622986,201.712082 347.248138,212.153595 
	C344.585846,213.851242 342.600433,214.143219 339.641968,212.274460 
	C311.297455,194.370285 282.819580,176.677200 254.374710,158.931976 
	C252.729492,157.905609 251.039124,156.951660 249.238449,155.886322 
	C247.500290,165.341293 247.877533,166.394516 255.044617,170.857956 
	C276.617218,184.292633 298.215820,197.685547 319.801514,211.099274 
	C320.431519,211.490784 321.030182,211.932770 322.603882,213.006561 
	C272.137115,213.006561 222.864059,213.006561 173.125854,213.006561 
	C173.125854,179.896545 173.125854,146.932205 173.125854,113.393303 
	C168.778091,117.233131 165.215851,120.923889 161.125931,123.886078 
	C150.192169,131.804993 137.808716,135.842621 124.317024,135.881302 
	C83.900391,135.997192 43.483276,135.942139 2.540557,135.474075 
	C2.014765,132.093277 2.014765,129.192215 2.014765,126.069611 
	C4.566813,126.069611 6.385005,126.069695 8.203197,126.069595 
	C37.477631,126.067955 66.752098,126.083267 96.026405,126.020630 
	C97.705727,126.017036 99.383698,125.377640 101.220764,124.731926 
	C101.379234,122.027931 101.379234,119.626152 101.379234,116.757843 
	C68.076431,116.757843 35.150909,116.757843 2.156793,116.309753 
	C2.031910,81.247612 1.975627,46.633560 1.941537,11.560219 
	C1.963730,8.187431 1.963730,5.273931 1.963730,2.044257 
	C4.616738,2.044257 6.430003,2.044306 8.243268,2.044249 
	C46.309944,2.043056 84.376640,2.053851 122.443230,1.996684 
	C123.962646,1.994402 125.481102,1.346883 127.000000,1.000000 
	C127.444450,1.000000 127.888893,1.000000 128.807953,1.368380 
	C146.438065,3.952676 160.826797,11.493868 173.247650,25.580965 
	C173.247650,16.861267 173.247650,9.506333 173.698792,2.122740 
	C198.885849,2.169693 223.621750,2.245303 248.357635,2.320915 
	C248.423676,2.658557 248.489700,2.996199 248.450623,3.724434 
	C248.441498,4.461231 248.537460,4.807436 248.633423,5.153643 
	C248.611420,5.827574 248.589417,6.501505 248.456482,7.645231 
	C248.441498,8.461232 248.537460,8.807436 248.633423,9.153642 
	C248.611404,9.827573 248.589417,10.501503 248.456482,11.645229 
	C248.441498,12.461231 248.537460,12.807436 248.633423,13.153642 
	C248.611420,13.827574 248.589432,14.501504 248.456467,15.645229 
	C248.441467,16.461233 248.537430,16.807440 248.633392,17.153645 
	C248.611420,17.827576 248.589432,18.501505 248.456482,19.645233 
	C248.441483,20.461233 248.537445,20.807440 248.633408,21.153645 
	C248.611420,21.827576 248.589417,22.501505 248.456467,23.645233 
	C248.441467,24.461235 248.537430,24.807440 248.633392,25.153645 
	C248.611404,25.827576 248.589417,26.501505 248.456467,27.645233 
	C248.441467,28.461235 248.537430,28.807442 248.633392,29.153646 
	C248.611420,29.827574 248.589432,30.501505 248.456467,31.645224 
	C248.441467,32.461224 248.537445,32.807430 248.633408,33.153641 
	C248.611420,33.827572 248.589432,34.501499 248.456467,35.645226 
	C248.441467,36.461224 248.537430,36.807434 248.633392,37.153641 
	C248.611420,37.827572 248.589417,38.501499 248.456482,39.645222 
	C248.441483,40.461224 248.537445,40.807434 248.633408,41.153641 
	C248.611923,41.832626 248.590439,42.511608 248.424026,43.766499 
	C248.399277,45.274456 248.519455,46.206512 248.639618,47.138565 
M44.437847,105.655609 
	C66.509163,105.682755 88.581093,105.815285 110.651489,105.686180 
	C119.724426,105.633102 127.819946,102.719589 134.661362,96.406433 
	C145.270294,86.616684 149.773636,70.236069 145.127472,57.222824 
	C140.003662,42.871773 126.930298,32.224464 112.924797,32.042988 
	C89.976334,31.745623 67.020660,32.005836 43.408768,32.550541 
	C43.266388,34.192997 43.001534,35.835350 43.000210,37.477921 
	C42.983295,58.421604 42.986446,79.365372 43.051044,100.308914 
	C43.055897,101.882820 43.567654,103.455162 44.437847,105.655609 
M400.676483,144.133453 
	C405.891235,140.890640 411.149933,137.716049 416.310394,134.389084 
	C424.094208,129.370865 424.183777,129.042084 422.407410,119.352036 
	C421.216583,120.084526 420.116028,120.756340 419.020447,121.436203 
	C394.763275,136.489380 370.491638,151.519455 346.275909,166.639023 
	C344.141479,167.971710 342.651733,168.678955 340.098450,167.059509 
	C321.155670,155.044876 302.075684,143.246521 283.036224,131.384338 
	C271.811279,124.390816 260.581696,117.404785 249.243454,110.346451 
	C246.958069,119.485405 247.632339,121.330025 254.685242,125.683968 
	C270.779144,135.619141 286.871918,145.556152 302.982117,155.464813 
	C316.382965,163.707062 329.808075,171.909943 343.112732,180.063049 
	C362.332458,168.092300 381.213196,156.332718 400.676483,144.133453 
M319.564362,176.966644 
	C296.328156,162.423553 273.091919,147.880463 249.563705,133.154602 
	C247.525284,142.523743 248.014191,143.992096 254.827545,148.204758 
	C282.056183,165.040009 309.451965,181.610962 336.457092,198.796432 
	C341.775696,202.181061 345.201172,201.518433 349.985474,198.478836 
	C372.119476,184.416473 394.438324,170.644302 416.730804,156.832520 
	C423.817566,152.441757 424.574921,150.671860 422.176392,141.947678 
	C395.833557,158.585281 369.546173,175.187881 343.343536,191.736938 
	C335.413605,186.804047 327.802948,182.069778 319.564362,176.966644 
z"/>
<path fill="#ED383D" opacity="1.000000" stroke="none" 
	d="
M515.000000,299.750000 
	C503.700897,302.342651 496.117920,297.932007 491.666229,287.427429 
	C490.711884,285.175476 488.999817,283.236328 487.583435,281.190033 
	C482.987396,274.549866 480.991608,273.633209 471.941132,274.222626 
	C471.941132,278.440277 471.941132,282.707031 471.941132,286.973785 
	C471.941132,291.106049 471.941132,295.238342 471.941132,299.711060 
	C467.789337,299.711060 463.875366,299.711060 459.580139,299.711060 
	C459.580139,279.242615 459.580139,258.678375 459.580139,236.763168 
	C472.649597,237.452316 485.696655,237.667801 498.626373,239.011932 
	C505.587860,239.735641 508.792572,245.652374 509.736542,252.096405 
	C510.700043,258.673706 509.085632,264.786438 503.246094,268.813843 
	C500.858765,270.460327 497.971466,271.381866 496.304047,272.166351 
	C502.171021,280.805786 508.265869,289.780792 514.680359,298.877930 
	C515.000000,299.000000 515.000000,299.500000 515.000000,299.750000 
M486.106964,263.856110 
	C487.750916,263.659515 489.396576,263.475922 491.038513,263.263733 
	C495.266510,262.717255 497.003723,260.026459 497.036530,256.048462 
	C497.071289,251.833038 494.980621,248.660461 490.834412,248.325500 
	C484.633453,247.824524 478.362061,248.195358 472.332275,248.195358 
	C472.332275,253.747330 472.332275,258.784271 472.332275,263.914825 
	C476.899384,263.914825 481.042175,263.914825 486.106964,263.856110 
z"/>
<path fill="#ED343A" opacity="1.000000" stroke="none" 
	d="
M90.466118,301.000000 
	C86.016106,298.784363 81.641190,297.057159 78.132446,294.248047 
	C71.511826,288.947540 69.296822,281.261261 68.291313,273.120300 
	C66.207245,256.246918 74.656288,240.952896 88.962517,237.635284 
	C110.626595,232.611374 127.286362,244.343475 127.986992,266.538361 
	C128.375015,278.830505 125.730835,289.768829 114.604836,296.808441 
	C111.879868,298.532593 108.497414,299.217560 105.208618,300.690125 
	C100.310745,301.000000 95.621490,301.000000 90.466118,301.000000 
M103.467903,289.513580 
	C108.626656,287.897247 112.487022,284.435730 113.422127,279.308990 
	C114.504784,273.373352 115.221863,267.042877 114.331604,261.150635 
	C112.913803,251.766891 106.451584,247.080139 97.743607,247.365021 
	C88.968102,247.652115 83.256836,252.692123 81.782104,262.096954 
	C81.173485,265.978271 81.029274,270.084045 81.564209,273.965027 
	C83.256088,286.239624 90.328033,291.389343 103.467903,289.513580 
z"/>
<path fill="#ED373C" opacity="1.000000" stroke="none" 
	d="
M294.466858,301.000000 
	C280.756561,296.140717 277.304993,291.325745 277.112244,276.571381 
	C276.945007,263.769379 277.077515,250.963470 277.077515,237.733368 
	C281.093384,237.733368 284.961517,237.733368 289.555115,237.733368 
	C289.555115,248.832504 289.548340,259.829468 289.560577,270.826447 
	C289.563141,273.141876 289.585419,275.459381 289.684143,277.772278 
	C290.107910,287.698486 297.186798,292.717682 306.762909,289.827271 
	C310.638611,288.657410 313.044373,286.071594 313.138550,281.887360 
	C313.426422,269.101471 313.624115,256.313568 313.846252,243.526260 
	C313.877838,241.709534 313.850616,239.891800 313.850616,237.692795 
	C318.011932,237.692795 321.877869,237.692795 325.753204,237.692795 
	C325.753204,253.286011 326.239777,268.586060 325.572052,283.835602 
	C325.166901,293.088013 319.192383,298.558960 310.142517,300.654510 
	C304.977905,301.000000 299.955811,301.000000 294.466858,301.000000 
z"/>
<path fill="#ED373D" opacity="1.000000" stroke="none" 
	d="
M24.464651,301.000000 
	C15.943879,297.503357 9.140466,292.827362 5.643687,284.162628 
	C-0.074509,269.993408 3.193109,252.082031 13.611629,242.681213 
	C27.403725,230.236359 50.685333,236.430664 56.400688,254.635895 
	C52.497738,255.628998 48.621975,256.615173 44.807838,257.585693 
	C38.878479,246.510864 29.335855,243.990356 21.354969,251.216736 
	C20.282675,252.187622 19.284348,253.427292 18.721035,254.743347 
	C14.579127,264.420135 14.558725,274.184235 19.147507,283.651642 
	C21.563440,288.636108 26.353609,290.362152 31.678202,290.239624 
	C36.805054,290.121704 40.433117,287.428192 42.674751,282.897675 
	C43.538673,281.151611 44.156452,279.283813 44.989983,277.214233 
	C48.793461,278.379333 52.379223,279.477753 55.883415,280.551178 
	C55.701035,289.685974 48.213741,297.937775 38.122490,300.647766 
	C33.643101,301.000000 29.286201,301.000000 24.464651,301.000000 
z"/>
<path fill="#ED3B40" opacity="1.000000" stroke="none" 
	d="
M1.000000,203.449982 
	C34.313240,203.000000 67.626480,203.000000 101.306618,203.000000 
	C101.306618,206.470795 101.306618,209.536819 101.306618,213.109344 
	C99.719833,213.203690 98.115349,213.381439 96.510765,213.382263 
	C66.436218,213.397705 36.361641,213.407700 6.287213,213.345779 
	C4.754695,213.342636 3.223527,212.682953 1.345865,212.164474 
	C1.000000,209.299988 1.000000,206.599976 1.000000,203.449982 
z"/>
<path fill="#ED3238" opacity="1.000000" stroke="none" 
	d="
M1.000000,184.454102 
	C34.228271,184.000000 67.456543,184.000000 101.170685,184.000000 
	C101.170685,187.393906 101.170685,190.575775 101.170685,194.055313 
	C67.889198,194.055313 34.913197,194.055313 1.468600,194.027649 
	C1.000000,190.969406 1.000000,187.938812 1.000000,184.454102 
z"/>
<path fill="#EC3237" opacity="1.000000" stroke="none" 
	d="
M1.000000,165.449982 
	C34.349194,165.000000 67.698387,165.000000 101.308876,165.000000 
	C101.308876,168.175186 101.308876,171.045715 101.308876,174.092514 
	C67.875008,174.092514 34.805958,174.092514 1.368451,174.046265 
	C1.000000,171.299988 1.000000,168.599976 1.000000,165.449982 
z"/>
<path fill="#FDFDFE" opacity="1.000000" stroke="none" 
	d="
M2.225394,116.757843 
	C35.150909,116.757843 68.076431,116.757843 101.379234,116.757843 
	C101.379234,119.626152 101.379234,122.027931 100.747505,124.726059 
	C67.077187,125.014938 34.038593,125.007469 1.000000,125.000000 
	C1.000000,122.629440 1.000000,120.258888 1.305182,117.377724 
	C1.815375,116.830688 2.020384,116.794266 2.225394,116.757843 
z"/>
<path fill="#F9F9FC" opacity="1.000000" stroke="none" 
	d="
M173.247650,2.151398 
	C173.247650,9.506333 173.247650,16.861267 173.247650,25.580965 
	C160.826797,11.493868 146.438065,3.952676 129.141266,1.368380 
	C143.354233,1.000000 157.708450,1.000000 172.570053,1.292840 
	C173.134171,1.774253 173.190903,1.962825 173.247650,2.151398 
z"/>
<path fill="#9B9BCC" opacity="1.000000" stroke="none" 
	d="
M126.531342,1.000000 
	C125.481102,1.346883 123.962646,1.994402 122.443230,1.996684 
	C84.376640,2.053851 46.309944,2.043056 8.243268,2.044249 
	C6.430003,2.044306 4.616738,2.044257 1.963730,2.044257 
	C1.963730,5.273931 1.963730,8.187431 1.711872,11.548716 
	C1.460015,11.996498 1.000000,12.000000 1.000000,12.000000 
	C1.000000,8.345080 1.000000,4.690161 1.000000,1.000000 
	C42.687553,1.000000 84.375122,1.000000 126.531342,1.000000 
z"/>
<path fill="#C9C9E4" opacity="1.000000" stroke="none" 
	d="
M1.000000,125.458069 
	C34.038593,125.007469 67.077187,125.014938 100.589035,125.028275 
	C99.383698,125.377640 97.705727,126.017036 96.026405,126.020630 
	C66.752098,126.083267 37.477631,126.067955 8.203197,126.069595 
	C6.385005,126.069695 4.566813,126.069611 2.014765,126.069611 
	C2.014765,129.192215 2.014765,132.093277 2.081772,135.442505 
	C1.959916,135.936188 1.771054,135.981735 1.291096,136.013641 
	C1.000000,132.638718 1.000000,129.277420 1.000000,125.458069 
z"/>
<path fill="#ADADD3" opacity="1.000000" stroke="none" 
	d="
M1.000000,12.468657 
	C1.000000,12.000000 1.460015,11.996498 1.689680,12.008002 
	C1.975627,46.633560 2.031910,81.247612 2.156793,116.309753 
	C2.020384,116.794266 1.815375,116.830688 1.305182,116.933563 
	C1.000000,82.312439 1.000000,47.624878 1.000000,12.468657 
z"/>
<path fill="#9393CC" opacity="1.000000" stroke="none" 
	d="
M173.698792,2.122740 
	C173.190903,1.962825 173.134171,1.774253 173.038712,1.292840 
	C198.020889,1.000000 223.041794,1.000000 248.531342,1.000000 
	C248.901520,1.224172 248.803040,1.448345 248.531097,1.996715 
	C223.621750,2.245303 198.885849,2.169693 173.698792,2.122740 
z"/>
<path fill="#F2B1B5" opacity="1.000000" stroke="none" 
	d="
M1.000000,145.457703 
	C1.318905,145.052856 1.600642,145.184952 1.923905,146.085754 
	C2.007949,149.549194 2.013300,152.323166 2.018650,155.097153 
	C1.950128,155.436035 1.761235,155.682770 1.225986,155.918671 
	C1.000000,152.638474 1.000000,149.276932 1.000000,145.457703 
z"/>
<path fill="#ED3A3F" opacity="1.000000" stroke="none" 
	d="
M200.593735,242.327835 
	C200.593628,261.748260 200.593628,280.705170 200.593628,299.857910 
	C196.565063,299.857910 193.106949,299.857910 189.222290,299.857910 
	C189.222290,284.714294 189.222290,269.632324 189.222290,254.550323 
	C188.867798,254.494537 188.513306,254.438736 188.158813,254.382950 
	C184.394241,269.398376 180.629669,284.413788 176.717636,300.017334 
	C173.452148,300.017334 170.146393,300.273438 166.921707,299.874420 
	C165.835785,299.740021 164.383636,298.090027 164.070190,296.880951 
	C160.944504,284.823608 158.030991,272.711365 155.032166,260.620911 
	C154.609512,258.916901 154.050507,257.246674 152.697174,255.672485 
	C152.697174,270.234833 152.697174,284.797180 152.697174,299.706268 
	C148.672638,299.706268 145.118271,299.706268 141.271317,299.706268 
	C141.271317,279.122528 141.271317,258.570404 141.271317,237.655975 
	C147.219330,237.655975 153.148697,237.655975 159.718872,237.655975 
	C163.217010,250.942322 166.770645,264.439514 170.324295,277.936676 
	C170.630936,277.958405 170.937576,277.980133 171.244217,278.001862 
	C173.492706,269.417969 175.683380,260.818359 178.012054,252.256256 
	C179.344971,247.355453 179.530472,239.949051 182.686646,238.262009 
	C187.195679,235.851868 193.953278,237.648468 200.237015,237.648468 
	C200.350754,238.992249 200.472290,240.428299 200.593735,242.327835 
z"/>
<path fill="#ED373D" opacity="1.000000" stroke="none" 
	d="
M398.667725,295.557587 
	C398.649872,276.077759 398.649872,257.064331 398.649872,237.682648 
	C413.835449,237.682648 428.707581,237.682648 443.927094,237.682648 
	C443.927094,240.853363 443.927094,244.133545 443.927094,247.850983 
	C433.204224,247.850983 422.449341,247.850983 411.376953,247.850983 
	C411.376953,252.657639 411.376953,257.038300 411.376953,261.750031 
	C421.436066,261.750031 431.354889,261.750031 441.659302,261.750031 
	C441.659302,265.300140 441.659302,268.534607 441.659302,272.349243 
	C431.759979,272.349243 421.793945,272.349243 411.448730,272.349243 
	C411.448730,278.119812 411.448730,283.327728 411.448730,289.321442 
	C419.720398,289.321442 428.074005,289.321167 436.427582,289.321533 
	C446.231934,289.321930 446.231934,289.322174 445.090973,300.015137 
	C434.727081,300.015137 424.292145,300.013824 413.857178,300.015808 
	C410.024658,300.016541 406.172668,299.788361 402.365387,300.100830 
	C398.986633,300.378113 398.301392,298.834808 398.667725,295.557587 
z"/>
<path fill="#EE383E" opacity="1.000000" stroke="none" 
	d="
M216.265808,243.251297 
	C216.227966,241.290726 216.227966,239.801102 216.227966,238.460571 
	C227.977600,238.460571 239.511749,237.968185 250.955429,238.768906 
	C254.269516,239.000778 258.130249,242.342560 260.331390,245.305420 
	C265.051697,251.659271 264.806641,259.108551 261.655518,266.083740 
	C258.666962,272.699158 252.951920,275.889435 245.685577,276.020691 
	C240.262466,276.118652 234.836166,276.040009 228.945099,276.040009 
	C228.945099,284.400940 228.945099,291.943787 228.945099,299.760559 
	C224.573990,299.760559 220.683884,299.760559 216.303635,299.760559 
	C216.303635,280.933167 216.303635,262.327728 216.265808,243.251297 
M248.475403,250.995071 
	C242.673782,246.052658 235.867004,248.713409 229.249817,247.988983 
	C229.249817,254.172440 229.249817,259.862701 229.249817,266.034210 
	C233.895859,265.810577 238.208176,265.901642 242.432098,265.334473 
	C250.063782,264.309784 252.650024,258.642426 248.475403,250.995071 
z"/>
<path fill="#ED383E" opacity="1.000000" stroke="none" 
	d="
M356.601379,285.971588 
	C356.679840,273.177917 356.679840,260.878632 356.679840,248.161285 
	C350.384583,248.161285 344.617218,248.161285 338.501282,248.161285 
	C338.501282,244.528793 338.501282,241.310715 338.501282,237.698135 
	C354.604919,237.698135 370.627075,237.698135 387.063263,237.698135 
	C387.063263,241.013580 387.063263,244.245804 387.063263,247.862244 
	C381.234406,247.862244 375.484985,247.862244 369.341064,247.862244 
	C369.341064,265.244843 369.341064,282.258240 369.341064,299.661560 
	C365.058655,299.661560 361.165436,299.661560 356.522919,299.661560 
	C356.522919,295.289276 356.522919,290.877625 356.601379,285.971588 
z"/>
<path fill="#ED3236" opacity="1.000000" stroke="none" 
	d="
M2.380580,155.124390 
	C2.013300,152.323166 2.007949,149.549194 1.998222,146.309143 
	C2.420487,145.745728 2.847129,145.648376 3.955118,145.697937 
	C5.115696,145.703781 5.594929,145.562714 6.074162,145.421631 
	C6.781197,145.453003 7.488231,145.484375 8.847006,145.598511 
	C9.698738,145.594315 9.898729,145.507355 10.098722,145.420410 
	C10.506154,145.457016 10.913587,145.493637 11.978735,145.687561 
	C13.115686,145.703781 13.594923,145.562698 14.074160,145.421631 
	C14.781196,145.453003 15.488231,145.484375 16.847006,145.598526 
	C17.698740,145.594315 17.898733,145.507355 18.098724,145.420410 
	C18.506157,145.457016 18.913589,145.493637 19.978741,145.687561 
	C21.115696,145.703781 21.594929,145.562698 22.074162,145.421631 
	C22.781197,145.453003 23.488230,145.484375 24.847006,145.598526 
	C25.698740,145.594315 25.898733,145.507355 26.098724,145.420410 
	C26.506157,145.457016 26.913589,145.493637 27.978743,145.687561 
	C29.115696,145.703781 29.594927,145.562698 30.074162,145.421631 
	C30.781195,145.453003 31.488228,145.484375 32.847000,145.598511 
	C33.698730,145.594345 33.898724,145.507385 34.098721,145.420410 
	C34.506153,145.457016 34.913586,145.493637 35.978737,145.687561 
	C37.115692,145.703781 37.594929,145.562714 38.074165,145.421631 
	C38.781197,145.453003 39.488228,145.484375 40.847000,145.598526 
	C41.698730,145.594345 41.898724,145.507385 42.098721,145.420410 
	C42.506153,145.457031 42.913582,145.493637 43.978737,145.687561 
	C45.115692,145.703796 45.594929,145.562714 46.074165,145.421631 
	C46.781197,145.453003 47.488228,145.484375 48.847000,145.598511 
	C49.698730,145.594345 49.898724,145.507385 50.098721,145.420410 
	C50.506153,145.457031 50.913582,145.493637 51.978737,145.687561 
	C53.115692,145.703796 53.594929,145.562714 54.074165,145.421631 
	C54.781197,145.453003 55.488228,145.484375 56.847000,145.598526 
	C57.698730,145.594345 57.898724,145.507385 58.098721,145.420410 
	C58.506153,145.457016 58.913582,145.493637 59.978737,145.687561 
	C61.115696,145.703796 61.594933,145.562714 62.074165,145.421631 
	C62.781200,145.453003 63.488232,145.484375 64.847015,145.598511 
	C65.698738,145.594345 65.898727,145.507385 66.098724,145.420410 
	C66.506157,145.457016 66.913589,145.493637 67.978745,145.687561 
	C69.115700,145.703781 69.594933,145.562698 70.074165,145.421631 
	C70.781197,145.453003 71.488235,145.484375 72.847015,145.598526 
	C73.698738,145.594345 73.898727,145.507385 74.098724,145.420410 
	C74.506157,145.457031 74.913589,145.493637 75.978745,145.687561 
	C77.115700,145.703796 77.594933,145.562714 78.074165,145.421631 
	C78.781197,145.453003 79.488235,145.484390 80.847015,145.598526 
	C81.698738,145.594345 81.898727,145.507385 82.098724,145.420410 
	C82.506157,145.457016 82.913589,145.493637 83.978745,145.687561 
	C85.115700,145.703796 85.594933,145.562714 86.074165,145.421631 
	C86.781197,145.452988 87.488235,145.484375 88.847015,145.598511 
	C89.698738,145.594345 89.898727,145.507385 90.098724,145.420410 
	C90.506157,145.457016 90.913589,145.493637 91.978745,145.687561 
	C93.115700,145.703796 93.594933,145.562714 94.074165,145.421631 
	C94.781197,145.453003 95.488235,145.484375 96.847015,145.598511 
	C97.698738,145.594345 97.898727,145.507385 98.098724,145.420410 
	C98.511391,145.457352 98.924049,145.494293 99.909332,145.773376 
	C100.810211,146.357574 101.138466,146.699661 101.466721,147.041748 
	C101.480835,147.473175 101.494957,147.904602 101.414597,149.035309 
	C101.368927,150.839996 101.417732,151.945389 101.466537,153.050781 
	C100.604553,153.757202 99.742577,154.463638 98.191086,155.113419 
	C97.307831,155.112442 97.114090,155.168106 96.920349,155.223785 
	C96.210556,155.207169 95.500763,155.190552 94.146271,155.115356 
	C93.307831,155.112442 93.114090,155.168106 92.920349,155.223785 
	C92.210556,155.207169 91.500763,155.190567 90.146271,155.115356 
	C89.307831,155.112442 89.114090,155.168106 88.920349,155.223785 
	C88.210556,155.207169 87.500763,155.190552 86.146271,155.115356 
	C85.307831,155.112442 85.114090,155.168106 84.920349,155.223785 
	C84.210556,155.207153 83.500763,155.190552 82.146271,155.115356 
	C81.307831,155.112442 81.114090,155.168106 80.920349,155.223785 
	C80.210556,155.207169 79.500763,155.190552 78.146271,155.115356 
	C77.307831,155.112442 77.114090,155.168106 76.920349,155.223785 
	C76.210556,155.207153 75.500763,155.190552 74.146271,155.115356 
	C73.307831,155.112442 73.114090,155.168106 72.920349,155.223785 
	C72.210556,155.207169 71.500763,155.190552 70.146271,155.115356 
	C69.307831,155.112442 69.114090,155.168106 68.920349,155.223785 
	C68.210556,155.207169 67.500763,155.190552 66.146271,155.115356 
	C65.307831,155.112442 65.114090,155.168106 64.920349,155.223785 
	C64.210564,155.207169 63.500771,155.190552 62.146294,155.115356 
	C61.307861,155.112442 61.114113,155.168106 60.920368,155.223785 
	C60.210575,155.207169 59.500778,155.190552 58.146294,155.115356 
	C57.307861,155.112442 57.114113,155.168106 56.920368,155.223785 
	C56.210575,155.207184 55.500778,155.190567 54.146294,155.115356 
	C53.307861,155.112442 53.114113,155.168106 52.920368,155.223785 
	C52.210575,155.207169 51.500778,155.190552 50.146294,155.115356 
	C49.307861,155.112442 49.114113,155.168106 48.920368,155.223785 
	C48.210575,155.207184 47.500778,155.190567 46.146294,155.115356 
	C45.307861,155.112442 45.114113,155.168106 44.920368,155.223785 
	C44.210575,155.207169 43.500778,155.190567 42.146294,155.115356 
	C41.307861,155.112442 41.114113,155.168106 40.920368,155.223785 
	C40.210575,155.207169 39.500778,155.190552 38.146294,155.115356 
	C37.307861,155.112442 37.114113,155.168106 36.920368,155.223785 
	C36.210575,155.207169 35.500778,155.190567 34.146294,155.115356 
	C33.307861,155.112442 33.114113,155.168106 32.920368,155.223785 
	C32.210571,155.207169 31.500776,155.190552 30.146286,155.115356 
	C29.307848,155.112442 29.114103,155.168106 28.920359,155.223785 
	C28.210564,155.207184 27.500771,155.190567 26.146284,155.115356 
	C25.307848,155.112442 25.114103,155.168106 24.920359,155.223785 
	C24.210564,155.207169 23.500771,155.190552 22.146284,155.115356 
	C21.307848,155.112442 21.114103,155.168106 20.920359,155.223785 
	C20.210564,155.207184 19.500771,155.190567 18.146284,155.115356 
	C17.307848,155.112442 17.114103,155.168106 16.920359,155.223785 
	C16.210564,155.207169 15.500770,155.190567 14.146284,155.115356 
	C13.307848,155.112442 13.114103,155.168106 12.920359,155.223785 
	C12.210565,155.207169 11.500771,155.190552 10.146284,155.115356 
	C9.307848,155.112442 9.114103,155.168106 8.920359,155.223785 
	C8.210566,155.207169 7.500773,155.190552 6.146288,155.115356 
	C5.307850,155.112442 5.114105,155.168106 4.920360,155.223785 
	C4.194410,155.199738 3.468461,155.175690 2.380580,155.124390 
z"/>
<path fill="#F2B1B5" opacity="1.000000" stroke="none" 
	d="
M101.645218,152.798401 
	C101.417732,151.945389 101.368927,150.839996 101.493942,149.349167 
	C101.719803,150.157822 101.771851,151.351929 101.645218,152.798401 
z"/>
<path fill="#9393CC" opacity="1.000000" stroke="none" 
	d="
M248.804688,46.746338 
	C248.519455,46.206512 248.399277,45.274456 248.460220,44.104607 
	C248.750809,44.695911 248.860275,45.525009 248.804688,46.746338 
z"/>
<path fill="#F2B1B5" opacity="1.000000" stroke="none" 
	d="
M101.619156,146.838409 
	C101.138466,146.699661 100.810211,146.357574 100.220657,145.774490 
	C100.563446,145.900681 101.167519,146.267868 101.619156,146.838409 
z"/>
<path fill="#F2B1B5" opacity="1.000000" stroke="none" 
	d="
M5.886779,145.270630 
	C5.594929,145.562714 5.115696,145.703781 4.286148,145.686813 
	C4.523687,145.392380 5.111542,145.256012 5.886779,145.270630 
z"/>
<path fill="#F2B1B5" opacity="1.000000" stroke="none" 
	d="
M93.886780,145.270630 
	C93.594933,145.562714 93.115700,145.703796 92.286156,145.686829 
	C92.523697,145.392395 93.111549,145.256027 93.886780,145.270630 
z"/>
<path fill="#F2B1B5" opacity="1.000000" stroke="none" 
	d="
M85.886780,145.270630 
	C85.594933,145.562714 85.115700,145.703796 84.286156,145.686829 
	C84.523697,145.392395 85.111549,145.256012 85.886780,145.270630 
z"/>
<path fill="#F2B1B5" opacity="1.000000" stroke="none" 
	d="
M77.886780,145.270630 
	C77.594933,145.562714 77.115700,145.703796 76.286156,145.686829 
	C76.523697,145.392395 77.111549,145.256027 77.886780,145.270630 
z"/>
<path fill="#F2B1B5" opacity="1.000000" stroke="none" 
	d="
M69.886780,145.270630 
	C69.594933,145.562698 69.115700,145.703781 68.286156,145.686813 
	C68.523697,145.392395 69.111549,145.256012 69.886780,145.270630 
z"/>
<path fill="#F2B1B5" opacity="1.000000" stroke="none" 
	d="
M61.886784,145.270630 
	C61.594933,145.562714 61.115696,145.703796 60.286144,145.686813 
	C60.523685,145.392395 61.111542,145.256027 61.886784,145.270630 
z"/>
<path fill="#F2B1B5" opacity="1.000000" stroke="none" 
	d="
M53.886780,145.270630 
	C53.594929,145.562714 53.115692,145.703796 52.286140,145.686813 
	C52.523685,145.392395 53.111542,145.256012 53.886780,145.270630 
z"/>
<path fill="#F2B1B5" opacity="1.000000" stroke="none" 
	d="
M45.886784,145.270645 
	C45.594929,145.562714 45.115692,145.703796 44.286144,145.686829 
	C44.523689,145.392410 45.111546,145.256027 45.886784,145.270645 
z"/>
<path fill="#F2B1B5" opacity="1.000000" stroke="none" 
	d="
M13.886783,145.270630 
	C13.594923,145.562698 13.115686,145.703781 12.286142,145.686813 
	C12.523691,145.392395 13.111549,145.256027 13.886783,145.270630 
z"/>
<path fill="#F2B1B5" opacity="1.000000" stroke="none" 
	d="
M21.886787,145.270630 
	C21.594929,145.562698 21.115696,145.703781 20.286148,145.686813 
	C20.523695,145.392380 21.111555,145.255997 21.886787,145.270630 
z"/>
<path fill="#F2B1B5" opacity="1.000000" stroke="none" 
	d="
M29.886787,145.270630 
	C29.594927,145.562698 29.115696,145.703781 28.286148,145.686813 
	C28.523693,145.392380 29.111553,145.255997 29.886787,145.270630 
z"/>
<path fill="#F2B1B5" opacity="1.000000" stroke="none" 
	d="
M37.886784,145.270645 
	C37.594929,145.562714 37.115692,145.703781 36.286144,145.686829 
	C36.523689,145.392395 37.111546,145.256027 37.886784,145.270645 
z"/>
<path fill="#F2B1B5" opacity="1.000000" stroke="none" 
	d="
M65.033661,155.374161 
	C65.114090,155.168106 65.307831,155.112442 65.791969,155.141235 
	C65.770561,155.325302 65.458771,155.424927 65.033661,155.374161 
z"/>
<path fill="#F2B1B5" opacity="1.000000" stroke="none" 
	d="
M69.033661,155.374161 
	C69.114090,155.168106 69.307831,155.112442 69.791969,155.141235 
	C69.770561,155.325302 69.458771,155.424927 69.033661,155.374161 
z"/>
<path fill="#F2B1B5" opacity="1.000000" stroke="none" 
	d="
M73.033661,155.374146 
	C73.114090,155.168106 73.307831,155.112442 73.791969,155.141220 
	C73.770561,155.325302 73.458763,155.424911 73.033661,155.374146 
z"/>
<path fill="#F2B1B5" opacity="1.000000" stroke="none" 
	d="
M61.033676,155.374146 
	C61.114113,155.168106 61.307861,155.112442 61.791992,155.141220 
	C61.770580,155.325302 61.458782,155.424911 61.033676,155.374146 
z"/>
<path fill="#F2B1B5" opacity="1.000000" stroke="none" 
	d="
M77.033661,155.374161 
	C77.114090,155.168106 77.307831,155.112442 77.791969,155.141235 
	C77.770561,155.325302 77.458763,155.424911 77.033661,155.374161 
z"/>
<path fill="#F2B1B5" opacity="1.000000" stroke="none" 
	d="
M81.033661,155.374161 
	C81.114090,155.168106 81.307831,155.112442 81.791969,155.141235 
	C81.770561,155.325302 81.458763,155.424911 81.033661,155.374161 
z"/>
<path fill="#9393CC" opacity="1.000000" stroke="none" 
	d="
M248.768860,16.827061 
	C248.537430,16.807440 248.441467,16.461233 248.489578,15.981112 
	C248.723877,16.064957 248.814117,16.282715 248.768860,16.827061 
z"/>
<path fill="#F2B1B5" opacity="1.000000" stroke="none" 
	d="
M85.033661,155.374161 
	C85.114090,155.168106 85.307831,155.112442 85.791969,155.141235 
	C85.770561,155.325302 85.458771,155.424927 85.033661,155.374161 
z"/>
<path fill="#F2B1B5" opacity="1.000000" stroke="none" 
	d="
M89.033661,155.374146 
	C89.114090,155.168106 89.307831,155.112442 89.791962,155.141220 
	C89.770561,155.325287 89.458763,155.424911 89.033661,155.374146 
z"/>
<path fill="#F2B1B5" opacity="1.000000" stroke="none" 
	d="
M93.033661,155.374146 
	C93.114090,155.168106 93.307831,155.112442 93.791969,155.141220 
	C93.770561,155.325302 93.458763,155.424911 93.033661,155.374146 
z"/>
<path fill="#F2B1B5" opacity="1.000000" stroke="none" 
	d="
M57.033676,155.374161 
	C57.114113,155.168106 57.307861,155.112442 57.791992,155.141235 
	C57.770584,155.325302 57.458786,155.424911 57.033676,155.374161 
z"/>
<path fill="#F2B1B5" opacity="1.000000" stroke="none" 
	d="
M97.033661,155.374161 
	C97.114090,155.168106 97.307831,155.112442 97.791969,155.141235 
	C97.770561,155.325302 97.458763,155.424911 97.033661,155.374161 
z"/>
<path fill="#9393CC" opacity="1.000000" stroke="none" 
	d="
M248.768875,50.827057 
	C248.537445,50.807434 248.441483,50.461224 248.489594,49.981102 
	C248.723877,50.064953 248.814117,50.282711 248.768875,50.827057 
z"/>
<path fill="#9393CC" opacity="1.000000" stroke="none" 
	d="
M249.075226,62.567417 
	C248.899414,62.616127 248.645554,62.396000 248.515411,62.022011 
	C248.758484,62.011627 248.877838,62.155106 249.075226,62.567417 
z"/>
<path fill="#9393CC" opacity="1.000000" stroke="none" 
	d="
M248.768875,40.827057 
	C248.537445,40.807434 248.441483,40.461224 248.489594,39.981102 
	C248.723877,40.064953 248.814117,40.282711 248.768875,40.827057 
z"/>
<path fill="#9393CC" opacity="1.000000" stroke="none" 
	d="
M248.768890,4.827057 
	C248.537460,4.807436 248.441498,4.461231 248.489594,3.981112 
	C248.723877,4.064957 248.814117,4.282715 248.768890,4.827057 
z"/>
<path fill="#9393CC" opacity="1.000000" stroke="none" 
	d="
M248.768860,36.827057 
	C248.537430,36.807434 248.441467,36.461224 248.489578,35.981106 
	C248.723877,36.064953 248.814117,36.282711 248.768860,36.827057 
z"/>
<path fill="#9393CC" opacity="1.000000" stroke="none" 
	d="
M248.768875,32.827057 
	C248.537445,32.807430 248.441467,32.461224 248.489578,31.981106 
	C248.723877,32.064953 248.814117,32.282711 248.768875,32.827057 
z"/>
<path fill="#9393CC" opacity="1.000000" stroke="none" 
	d="
M248.768890,8.827056 
	C248.537460,8.807436 248.441498,8.461232 248.489594,7.981113 
	C248.723877,8.064957 248.814117,8.282715 248.768890,8.827056 
z"/>
<path fill="#9393CC" opacity="1.000000" stroke="none" 
	d="
M248.768875,58.827057 
	C248.537445,58.807430 248.441483,58.461224 248.489594,57.981102 
	C248.723877,58.064953 248.814117,58.282711 248.768875,58.827057 
z"/>
<path fill="#9393CC" opacity="1.000000" stroke="none" 
	d="
M248.768860,28.827061 
	C248.537430,28.807442 248.441467,28.461235 248.489578,27.981115 
	C248.723877,28.064959 248.814117,28.282717 248.768860,28.827061 
z"/>
<path fill="#9393CC" opacity="1.000000" stroke="none" 
	d="
M248.768860,24.827061 
	C248.537430,24.807440 248.441467,24.461235 248.489578,23.981113 
	C248.723877,24.064959 248.814117,24.282717 248.768860,24.827061 
z"/>
<path fill="#9393CC" opacity="1.000000" stroke="none" 
	d="
M248.768890,12.827055 
	C248.537460,12.807436 248.441498,12.461231 248.489594,11.981112 
	C248.723877,12.064954 248.814117,12.282712 248.768890,12.827055 
z"/>
<path fill="#9393CC" opacity="1.000000" stroke="none" 
	d="
M248.768875,20.827061 
	C248.537445,20.807440 248.441483,20.461233 248.489594,19.981113 
	C248.723877,20.064959 248.814117,20.282717 248.768875,20.827061 
z"/>
<path fill="#9393CC" opacity="1.000000" stroke="none" 
	d="
M248.768875,54.827057 
	C248.537445,54.807430 248.441483,54.461224 248.489594,53.981102 
	C248.723877,54.064953 248.814117,54.282711 248.768875,54.827057 
z"/>
<path fill="#F2B1B5" opacity="1.000000" stroke="none" 
	d="
M9.975052,145.288879 
	C9.898729,145.507355 9.698738,145.594315 9.198536,145.550964 
	C9.216011,145.332870 9.533696,145.245102 9.975052,145.288879 
z"/>
<path fill="#F2B1B5" opacity="1.000000" stroke="none" 
	d="
M17.975052,145.288879 
	C17.898733,145.507355 17.698740,145.594315 17.198536,145.550949 
	C17.216009,145.332855 17.533693,145.245102 17.975052,145.288879 
z"/>
<path fill="#F2B1B5" opacity="1.000000" stroke="none" 
	d="
M25.975052,145.288879 
	C25.898733,145.507355 25.698740,145.594315 25.198536,145.550964 
	C25.216011,145.332870 25.533695,145.245102 25.975052,145.288879 
z"/>
<path fill="#F2B1B5" opacity="1.000000" stroke="none" 
	d="
M33.975044,145.288879 
	C33.898724,145.507385 33.698730,145.594345 33.198532,145.550964 
	C33.216000,145.332870 33.533680,145.245117 33.975044,145.288879 
z"/>
<path fill="#F2B1B5" opacity="1.000000" stroke="none" 
	d="
M41.975044,145.288879 
	C41.898724,145.507385 41.698730,145.594345 41.198532,145.550964 
	C41.216003,145.332870 41.533684,145.245117 41.975044,145.288879 
z"/>
<path fill="#F2B1B5" opacity="1.000000" stroke="none" 
	d="
M49.975044,145.288879 
	C49.898724,145.507385 49.698730,145.594345 49.198532,145.550964 
	C49.216000,145.332870 49.533684,145.245117 49.975044,145.288879 
z"/>
<path fill="#F2B1B5" opacity="1.000000" stroke="none" 
	d="
M57.975044,145.288879 
	C57.898724,145.507385 57.698730,145.594345 57.198532,145.550964 
	C57.216000,145.332870 57.533680,145.245117 57.975044,145.288879 
z"/>
<path fill="#F2B1B5" opacity="1.000000" stroke="none" 
	d="
M65.975052,145.288879 
	C65.898727,145.507385 65.698738,145.594345 65.198547,145.550964 
	C65.216019,145.332870 65.533699,145.245117 65.975052,145.288879 
z"/>
<path fill="#F2B1B5" opacity="1.000000" stroke="none" 
	d="
M73.975052,145.288879 
	C73.898727,145.507385 73.698738,145.594345 73.198547,145.550964 
	C73.216019,145.332870 73.533699,145.245117 73.975052,145.288879 
z"/>
<path fill="#F2B1B5" opacity="1.000000" stroke="none" 
	d="
M81.975052,145.288879 
	C81.898727,145.507385 81.698738,145.594345 81.198547,145.550964 
	C81.216011,145.332870 81.533699,145.245102 81.975052,145.288879 
z"/>
<path fill="#F2B1B5" opacity="1.000000" stroke="none" 
	d="
M89.975052,145.288879 
	C89.898727,145.507385 89.698738,145.594345 89.198547,145.550964 
	C89.216019,145.332870 89.533699,145.245117 89.975052,145.288879 
z"/>
<path fill="#F2B1B5" opacity="1.000000" stroke="none" 
	d="
M97.975052,145.288879 
	C97.898727,145.507385 97.698738,145.594345 97.198547,145.550964 
	C97.216019,145.332870 97.533699,145.245117 97.975052,145.288879 
z"/>
<path fill="#F2B1B5" opacity="1.000000" stroke="none" 
	d="
M53.033676,155.374161 
	C53.114113,155.168106 53.307861,155.112442 53.791992,155.141235 
	C53.770584,155.325302 53.458786,155.424927 53.033676,155.374161 
z"/>
<path fill="#F2B1B5" opacity="1.000000" stroke="none" 
	d="
M5.033664,155.374176 
	C5.114105,155.168106 5.307850,155.112442 5.791986,155.141235 
	C5.770574,155.325302 5.458771,155.424927 5.033664,155.374176 
z"/>
<path fill="#F2B1B5" opacity="1.000000" stroke="none" 
	d="
M9.033661,155.374161 
	C9.114103,155.168106 9.307848,155.112442 9.791981,155.141220 
	C9.770567,155.325302 9.458765,155.424927 9.033661,155.374161 
z"/>
<path fill="#F2B1B5" opacity="1.000000" stroke="none" 
	d="
M13.033661,155.374176 
	C13.114103,155.168106 13.307848,155.112442 13.791981,155.141235 
	C13.770567,155.325302 13.458765,155.424927 13.033661,155.374176 
z"/>
<path fill="#F2B1B5" opacity="1.000000" stroke="none" 
	d="
M17.033669,155.374161 
	C17.114103,155.168106 17.307848,155.112442 17.791981,155.141235 
	C17.770573,155.325302 17.458775,155.424911 17.033669,155.374161 
z"/>
<path fill="#F2B1B5" opacity="1.000000" stroke="none" 
	d="
M21.033669,155.374161 
	C21.114103,155.168106 21.307848,155.112442 21.791983,155.141235 
	C21.770575,155.325317 21.458778,155.424927 21.033669,155.374161 
z"/>
<path fill="#F2B1B5" opacity="1.000000" stroke="none" 
	d="
M25.033669,155.374161 
	C25.114103,155.168106 25.307848,155.112442 25.791981,155.141235 
	C25.770575,155.325302 25.458776,155.424927 25.033669,155.374161 
z"/>
<path fill="#F2B1B5" opacity="1.000000" stroke="none" 
	d="
M29.033670,155.374176 
	C29.114103,155.168106 29.307848,155.112442 29.791985,155.141235 
	C29.770576,155.325317 29.458778,155.424927 29.033670,155.374176 
z"/>
<path fill="#F2B1B5" opacity="1.000000" stroke="none" 
	d="
M33.033676,155.374161 
	C33.114113,155.168106 33.307861,155.112442 33.791992,155.141235 
	C33.770584,155.325302 33.458786,155.424927 33.033676,155.374161 
z"/>
<path fill="#F2B1B5" opacity="1.000000" stroke="none" 
	d="
M37.033676,155.374161 
	C37.114113,155.168106 37.307861,155.112442 37.791992,155.141235 
	C37.770584,155.325302 37.458786,155.424911 37.033676,155.374161 
z"/>
<path fill="#F2B1B5" opacity="1.000000" stroke="none" 
	d="
M41.033676,155.374161 
	C41.114113,155.168106 41.307861,155.112442 41.791992,155.141235 
	C41.770580,155.325302 41.458782,155.424911 41.033676,155.374161 
z"/>
<path fill="#F2B1B5" opacity="1.000000" stroke="none" 
	d="
M45.033676,155.374161 
	C45.114113,155.168106 45.307861,155.112442 45.791992,155.141235 
	C45.770584,155.325317 45.458786,155.424927 45.033676,155.374161 
z"/>
<path fill="#F2B1B5" opacity="1.000000" stroke="none" 
	d="
M49.033676,155.374161 
	C49.114113,155.168106 49.307861,155.112442 49.791992,155.141235 
	C49.770584,155.325302 49.458786,155.424927 49.033676,155.374161 
z"/>
<path fill="#FCFCFD" opacity="1.000000" stroke="none" 
	d="
M44.068027,32.030884 
	C67.020660,32.005836 89.976334,31.745623 112.924797,32.042988 
	C126.930298,32.224464 140.003662,42.871773 145.127472,57.222824 
	C149.773636,70.236069 145.270294,86.616684 134.661362,96.406433 
	C127.819946,102.719589 119.724426,105.633102 110.651489,105.686180 
	C88.581093,105.815285 66.509163,105.682755 44.188278,104.873154 
	C43.981815,80.070763 44.024921,56.050823 44.068027,32.030884 
z"/>
<path fill="#F7F7FB" opacity="1.000000" stroke="none" 
	d="
M400.385193,144.353287 
	C381.213196,156.332718 362.332458,168.092300 343.112732,180.063049 
	C329.808075,171.909943 316.382965,163.707062 302.982117,155.464813 
	C286.871918,145.556152 270.779144,135.619141 254.685242,125.683968 
	C247.632339,121.330025 246.958069,119.485405 249.243454,110.346451 
	C260.581696,117.404785 271.811279,124.390816 283.036224,131.384338 
	C302.075684,143.246521 321.155670,155.044876 340.098450,167.059509 
	C342.651733,168.678955 344.141479,167.971710 346.275909,166.639023 
	C370.491638,151.519455 394.763275,136.489380 419.020447,121.436203 
	C420.116028,120.756340 421.216583,120.084526 422.407410,119.352036 
	C424.183777,129.042084 424.094208,129.370865 416.310394,134.389084 
	C411.149933,137.716049 405.891235,140.890640 400.385193,144.353287 
z"/>
<path fill="#F7F8FB" opacity="1.000000" stroke="none" 
	d="
M319.878357,177.151077 
	C327.802948,182.069778 335.413605,186.804047 343.343536,191.736938 
	C369.546173,175.187881 395.833557,158.585281 422.176392,141.947678 
	C424.574921,150.671860 423.817566,152.441757 416.730804,156.832520 
	C394.438324,170.644302 372.119476,184.416473 349.985474,198.478836 
	C345.201172,201.518433 341.775696,202.181061 336.457092,198.796432 
	C309.451965,181.610962 282.056183,165.040009 254.827545,148.204758 
	C248.014191,143.992096 247.525284,142.523743 249.563705,133.154602 
	C273.091919,147.880463 296.328156,162.423553 319.878357,177.151077 
z"/>
<path fill="#666CB3" opacity="1.000000" stroke="none" 
	d="
M43.738396,32.290714 
	C44.024921,56.050823 43.981815,80.070763 43.891243,104.559464 
	C43.567654,103.455162 43.055897,101.882820 43.051044,100.308914 
	C42.986446,79.365372 42.983295,58.421604 43.000210,37.477921 
	C43.001534,35.835350 43.266388,34.192997 43.738396,32.290714 
z"/>
<path fill="#FFFCFC" opacity="1.000000" stroke="none" 
	d="
M485.645966,263.885468 
	C481.042175,263.914825 476.899384,263.914825 472.332275,263.914825 
	C472.332275,258.784271 472.332275,253.747330 472.332275,248.195358 
	C478.362061,248.195358 484.633453,247.824524 490.834412,248.325500 
	C494.980621,248.660461 497.071289,251.833038 497.036530,256.048462 
	C497.003723,260.026459 495.266510,262.717255 491.038513,263.263733 
	C489.396576,263.475922 487.750916,263.659515 485.645966,263.885468 
z"/>
<path fill="#FFFCFC" opacity="1.000000" stroke="none" 
	d="
M103.091522,289.698120 
	C90.328033,291.389343 83.256088,286.239624 81.564209,273.965027 
	C81.029274,270.084045 81.173485,265.978271 81.782104,262.096954 
	C83.256836,252.692123 88.968102,247.652115 97.743607,247.365021 
	C106.451584,247.080139 112.913803,251.766891 114.331604,261.150635 
	C115.221863,267.042877 114.504784,273.373352 113.422127,279.308990 
	C112.487022,284.435730 108.626656,287.897247 103.091522,289.698120 
z"/>
<path fill="#FFFAFA" opacity="1.000000" stroke="none" 
	d="
M248.736755,251.279633 
	C252.650024,258.642426 250.063782,264.309784 242.432098,265.334473 
	C238.208176,265.901642 233.895859,265.810577 229.249817,266.034210 
	C229.249817,259.862701 229.249817,254.172440 229.249817,247.988983 
	C235.867004,248.713409 242.673782,246.052658 248.736755,251.279633 
z"/>
</svg>