<?xml version="1.0" standalone="no"?>
<!DOCTYPE svg PUBLIC "-//W3C//DTD SVG 20010904//EN" "http://www.w3.org/TR/2001/REC-SVG-20010904/DTD/svg10.dtd">
<svg xmlns="http://www.w3.org/2000/svg" version="1.0" width="514.000000pt" height="300.000000pt" viewBox="0 0 514.000000 300.000000" preserveAspectRatio="xMidYMid meet">
<metadata>
Created by potrace 1.16, written by Peter Selinger 2001-2019
<meta name="Producer" content="Online-Convert"/></metadata>
<g transform="translate(0.000000,300.000000) scale(0.100000,-0.100000)" fill="#000000" stroke="none">
<path d="M10 2417 l0 -574 488 -1 c268 0 493 -1 500 -1 9 -1 12 -14 10 -43 l-3 -43 -497 -3 -498 -2 0 -51 0 -50 663 4 c599 3 668 5 722 21 101 30 185 78 257 145 l68 63 0 -501 0 -501 748 0 c734 0 746 1 717 19 -196 122 -575 358 -630 391 -38 23 -73 47 -76 52 -10 15 -10 108 -1 108 5 0 55 -28 111 -62 158 -98 668 -417 743 -465 37 -24 74 -46 81 -49 12 -4 135 69 382 226 30 19 114 72 187 118 73 46 157 99 186 118 l52 34 0 -59 0 -59 -92 -59 c-51 -33 -175 -111 -275 -174 l-183 -114 323 -3 c197 -2 352 1 399 8 294 42 526 227 618 495 62 179 41 434 -48 595 -96 172 -277 306 -492 363 -82 21 -100 22 -565 22 l-480 0 0 -220 0 -220 400 -5 400 -5 -95 -59 c-52 -32 -111 -68 -130 -81 -75 -50 -554 -347 -566 -352 -9 -3 -13 42 -16 199 -3 188 -5 207 -28 258 -65 150 -193 272 -385 367 -116 58 -256 92 -445 109 -41 3 -77 8 -80 11 -3 3 -6 134 -7 291 -1 158 -2 293 -2 300 -1 9 -83 12 -376 12 l-375 0 0 -117 0 -117 -52 50 c-91 88 -173 134 -292 166 -64 17 -122 18 -718 18 l-648 0 0 -573z m1232 241 c78 -36 139 -95 179 -175 31 -62 34 -74 34 -157 -1 -70 -6 -104 -24 -148 -30 -78 -120 -168 -199 -200 -56 -23 -63 -23 -431 -23 l-373 0 0 340 c1 187 1 353 2 368 l0 28 378 -3 377 -3 57 -27z m1458 -886 c30 -19 93 -59 140 -87 47 -29 155 -96 240 -150 217 -137 329 -205 340 -205 7 0 433 261 530 325 19 13 77 48 128 79 51 31 104 63 117 72 l25 16 0 -58 0 -59 -321 -200 c-177 -110 -357 -222 -400 -248 l-78 -48 -138 84 c-76 47 -205 126 -288 177 -241 148 -457 281 -492 302 -31 18 -33 24 -33 72 0 29 3 55 6 59 6 5 65 -30 224 -131z m254 -385 l469 -293 141 88 c78 49 202 128 276 175 259 164 369 233 374 233 4 0 6 -25 6 -55 0 -63 24 -42 -225 -195 -82 -51 -166 -102 -185 -115 -19 -12 -114 -72 -211 -132 -145 -90 -180 -108 -195 -100 -11 6 -120 73 -244 150 -124 77 -295 182 -380 235 -85 52 -181 111 -212 131 -31 20 -64 41 -73 46 -13 8 -18 26 -20 68 -1 31 1 57 4 57 3 0 217 -132 475 -293z"/>
<path d="M10 1505 l0 -45 495 0 c529 0 498 -3 498 45 0 48 31 45 -498 45 l-495 0 0 -45z"/>
<path d="M10 1315 l0 -45 495 0 c323 0 495 3 496 10 1 6 1 21 1 35 0 14 0 30 -1 35 -1 7 -173 10 -496 10 l-495 0 0 -45z"/>
<path d="M10 1120 l0 -50 495 0 c323 0 495 3 496 10 1 6 1 21 1 35 0 14 0 32 -1 40 -1 13 -63 15 -496 15 l-495 0 0 -50z"/>
<path d="M14 971 c-2 -2 -4 -24 -4 -48 l0 -43 497 2 498 3 -2 38 c-1 22 -4 42 -8 45 -7 7 -974 10 -981 3z"/>
<path d="M230 633 c-92 -36 -133 -68 -165 -133 -50 -98 -54 -248 -9 -347 17 -38 89 -111 124 -126 88 -37 200 -29 272 19 43 28 89 94 91 131 2 22 -5 28 -50 43 l-52 17 -15 -38 c-31 -76 -94 -111 -163 -89 -81 26 -116 90 -115 214 0 131 37 195 124 211 20 4 50 4 67 0 32 -7 91 -60 91 -82 0 -14 48 -10 97 8 20 7 21 11 11 41 -27 81 -115 135 -223 136 -38 1 -77 -2 -85 -5z"/>
<path d="M857 623 c-65 -24 -132 -93 -158 -162 -16 -42 -20 -75 -18 -151 1 -84 5 -103 31 -155 45 -92 116 -139 224 -151 96 -10 177 15 237 74 72 70 90 117 92 237 4 143 -52 249 -155 298 -62 29 -187 34 -253 10z m205 -107 c60 -39 88 -118 81 -226 -9 -135 -107 -216 -219 -180 -89 28 -124 94 -120 225 3 109 26 156 90 187 48 22 129 19 168 -6z"/>
<path d="M1411 630 c-5 -3 -8 -143 -8 -312 l0 -308 54 0 53 0 0 247 c0 135 3 243 7 239 4 -3 8 -12 9 -19 2 -13 102 -422 110 -450 5 -15 15 -17 62 -15 l57 3 53 210 c29 116 55 223 58 240 3 16 7 31 10 34 2 2 4 -107 4 -242 l0 -247 55 0 55 0 0 313 0 312 -85 -1 c-85 -1 -97 -4 -101 -27 -3 -18 -94 -370 -100 -386 -6 -18 -12 -12 -18 19 -4 21 -39 156 -87 338 -7 23 -16 45 -21 48 -12 8 -157 11 -167 4z"/>
<path d="M2170 632 c-6 -2 -10 -116 -10 -313 l0 -310 58 3 57 3 0 112 c0 61 2 114 5 117 3 2 50 6 105 6 133 3 181 26 220 107 35 72 20 165 -34 221 -33 34 -48 41 -93 47 -58 7 -292 12 -308 7z m302 -129 c38 -36 38 -84 0 -122 -25 -26 -34 -28 -113 -30 l-85 -2 2 88 c1 48 2 89 3 91 0 1 38 2 83 2 75 0 84 -2 110 -27z"/>
<path d="M2768 629 c-11 -7 -9 -382 2 -456 9 -51 44 -117 70 -127 8 -4 29 -14 45 -23 22 -13 53 -17 120 -16 50 0 97 2 105 5 38 9 93 54 113 92 20 38 22 57 25 284 2 133 0 242 -5 243 -51 5 -106 2 -109 -6 -2 -5 -5 -112 -6 -237 l-3 -228 -28 -27 c-23 -24 -36 -28 -80 -28 -69 0 -109 21 -123 65 -7 21 -12 121 -13 245 -1 115 -4 211 -7 214 -6 7 -95 7 -106 0z"/>
<path d="M3380 583 l0 -53 90 0 90 0 0 -260 0 -260 60 0 60 0 0 260 0 260 90 0 90 0 0 50 c0 33 -4 50 -12 51 -7 0 -115 1 -241 2 l-227 2 0 -52z"/>
<path d="M3980 323 l0 -313 231 0 230 0 -3 52 -3 53 -165 0 -165 0 -3 87 -3 88 156 0 155 0 0 50 0 50 -155 0 -155 0 0 70 0 70 165 0 165 0 0 53 0 52 -225 0 -225 0 0 -312z"/>
<path d="M4602 629 c-15 -5 -17 -33 -17 -312 l0 -307 60 0 60 0 0 133 0 132 50 -3 c63 -4 77 -17 168 -154 l72 -108 68 0 67 0 -22 42 c-51 93 -120 189 -156 213 -25 17 -31 25 -19 26 122 9 192 153 127 262 -27 45 -59 64 -126 72 -65 9 -310 12 -332 4z m338 -119 c31 -31 30 -82 -2 -117 -18 -19 -29 -21 -126 -20 l-107 2 0 78 -1 77 108 0 c95 0 110 -2 128 -20z"/>
</g>
</svg>
